HIERARCHY
ROOT Hips
{
 OFFSET 0.000000 0.000000 0.000000
 CHANNELS 6 Xposition Yposition Zposition Yrotation Xrotation Zrotation
 JOINT Chest
 {
  OFFSET 0.000000 9.588913 -0.003946
  CHANNELS 3 Yrotation Xrotation Zrotation
  JOINT Chest2
  {
   OFFSET 0.000000 9.541882 0.008053
   CHANNELS 3 Yrotation Xrotation Zrotation
   JOINT Chest3
   {
    OFFSET 0.000000 9.501360 0.000000
    CHANNELS 3 Yrotation Xrotation Zrotation
    JOINT Chest4
    {
     OFFSET 0.000000 9.491660 0.000000
     CHANNELS 3 Yrotation Xrotation Zrotation
     JOINT Neck
     {
      OFFSET 0.000000 14.331917 0.000000
      CHANNELS 3 Yrotation Xrotation Zrotation
      JOINT Head
      {
       OFFSET 0.000000 8.884799 0.017034
       CHANNELS 3 Yrotation Xrotation Zrotation
       End Site
       {
        OFFSET 0.000000 16.896195 0.008993
       }
      }
     }
     JOINT RightCollar
     {
      OFFSET -2.923010 9.499495 0.000000
      CHANNELS 3 Yrotation Xrotation Zrotation
      JOINT RightShoulder
      {
       OFFSET -13.795216 0.000000 0.000000
       CHANNELS 3 Yrotation Xrotation Zrotation
       JOINT RightElbow
       {
        OFFSET -30.272209 0.000000 0.000000
        CHANNELS 3 Yrotation Xrotation Zrotation
        JOINT RightWrist
        {
         OFFSET -24.478199 0.000000 0.000000
         CHANNELS 3 Yrotation Xrotation Zrotation
         End Site
         {
          OFFSET -18.090752 0.000000 0.000000
         }
        }
       }
      }
     }
     JOINT LeftCollar
     {
      OFFSET 2.923010 9.499495 0.000000
      CHANNELS 3 Yrotation Xrotation Zrotation
      JOINT LeftShoulder
      {
       OFFSET 13.795216 0.000000 0.000000
       CHANNELS 3 Yrotation Xrotation Zrotation
       JOINT LeftElbow
       {
        OFFSET 30.272209 0.000000 0.000000
        CHANNELS 3 Yrotation Xrotation Zrotation
        JOINT LeftWrist
        {
         OFFSET 24.478199 0.000000 0.000000
         CHANNELS 3 Yrotation Xrotation Zrotation
         End Site
         {
          OFFSET 18.090752 0.000000 0.000000
         }
        }
       }
      }
     }
    }
   }
  }
 }
 JOINT RightHip
 {
  OFFSET -7.826875 0.019532 0.001973
  CHANNELS 3 Yrotation Xrotation Zrotation
  JOINT RightKnee
  {
   OFFSET 0.000000 -40.546152 -0.001885
   CHANNELS 3 Yrotation Xrotation Zrotation
   JOINT RightAnkle
   {
    OFFSET 0.000000 -39.417092 -0.003189
    CHANNELS 3 Yrotation Xrotation Zrotation
    JOINT RightToe
    {
     OFFSET 0.000000 -7.579396 17.243563
     CHANNELS 3 Yrotation Xrotation Zrotation
     End Site
     {
      OFFSET 0.000000 -1.500329 6.694466
     }
    }
   }
  }
 }
 JOINT LeftHip
 {
  OFFSET 7.826875 0.019532 0.001973
  CHANNELS 3 Yrotation Xrotation Zrotation
  JOINT LeftKnee
  {
   OFFSET 0.000000 -40.546152 -0.001885
   CHANNELS 3 Yrotation Xrotation Zrotation
   JOINT LeftAnkle
   {
    OFFSET 0.000000 -39.417092 -0.003189
    CHANNELS 3 Yrotation Xrotation Zrotation
    JOINT LeftToe
    {
     OFFSET 0.000000 -7.579396 17.243563
     CHANNELS 3 Yrotation Xrotation Zrotation
     End Site
     {
      OFFSET 0.000000 -1.500329 6.694466
     }
    }
   }
  }
 }
}
MOTION
Frames: 5
Frame Time: 0.008333
0.000000 87.345680 0.000000 0.000000 -5.767889 0.000000 0.000000 11.653876 0.000000 0.000000 -5.885988 0.000000 0.000000 -0.000000 0.000000 0.000000 -0.000000 0.000000 0.000000 12.528808 0.000000 0.000000 0.711711 0.000000 0.000000 -0.000000 0.000000 0.000000 -0.000000 0.000000 2.309063 -0.000000 0.000000 -2.309063 -0.000000 -0.000000 0.000000 -0.000000 0.000000 0.000000 0.000000 0.000000 -2.309063 0.000000 0.000000 2.309063 -0.000000 0.000000 0.000000 8.520374 0.000000 0.000000 1.905768 0.000000 -0.000000 -4.658254 0.000000 0.000000 -0.000000 0.000000 0.000000 8.520374 0.000000 0.000000 1.905768 0.000000 -0.000000 -4.658254 0.000000 0.000000 -0.000000 0.000000
-1.946447 89.084056 11.643089 -47.470847 -5.424341 -1.492690 -1.791270 3.315660 0.140116 -1.028421 1.894549 0.117139 -1.285097 2.368490 0.141125 -1.028421 1.894549 0.117139 -8.607359 23.817648 1.175638 -9.807378 0.465763 3.281963 -2.495891 1.209986 -5.431003 -3.366220 20.693693 85.662093 13.274106 12.977064 12.665639 -1.301793 -1.591902 -1.306530 5.695568 -0.554171 1.022471 1.951133 5.809592 -87.800188 -6.788122 8.232053 -2.263695 -1.396162 -3.361892 0.369975 -2.735883 6.503081 1.341325 -1.332101 3.690363 -0.820661 -1.143623 -4.547239 0.211225 -0.003235 -0.051790 0.007048 4.333663 10.507022 1.018952 4.196605 0.534148 0.779206 5.072109 -5.672258 -0.650820 0.007966 0.052847 0.002190
-1.952563 89.083851 11.645687 -47.469507 -5.426957 -1.490905 -1.793289 3.317640 0.140655 -1.029654 1.895846 0.116543 -1.286640 2.370111 0.140370 -1.029654 1.895846 0.116543 -8.609657 23.820293 1.184362 -9.812295 0.469726 3.292208 -2.501859 1.205423 -5.436748 -3.348835 20.701663 85.655223 13.257957 12.984706 12.682864 -1.310047 -1.595527 -1.296835 5.688541 -0.559680 1.021633 1.927806 5.791294 -87.802800 -6.762919 8.239910 -2.261226 -1.396935 -3.362409 0.367223 -2.730515 6.505294 1.338621 -1.336898 3.699478 -0.817303 -1.143383 -4.554001 0.210652 -0.002750 -0.052021 0.004413 4.333887 10.513898 1.018002 4.190077 0.534204 0.783456 5.074535 -5.674786 -0.655053 0.008467 0.053068 0.001785
-1.959723 89.083589 11.648441 -47.468363 -5.429424 -1.489416 -1.795099 3.319123 0.141116 -1.030812 1.896835 0.115968 -1.288091 2.371345 0.139642 -1.030812 1.896835 0.115968 -8.613137 23.823753 1.192948 -9.818566 0.474811 3.302581 -2.510858 1.202323 -5.442178 -3.325739 20.710429 85.646771 13.243646 13.000245 12.704491 -1.317171 -1.600130 -1.288630 5.686898 -0.564438 1.021222 1.897014 5.767243 -87.805693 -6.734335 8.245653 -2.256815 -1.399491 -3.362591 0.361808 -2.725608 6.508184 1.336296 -1.343638 3.708209 -0.814310 -1.139472 -4.561682 0.209899 -0.001791 -0.051788 0.002536 4.331947 10.521183 1.018471 4.185484 0.534757 0.785624 5.076988 -5.678843 -0.658029 0.008838 0.053439 0.000847
-1.967656 89.083267 11.651144 -47.464332 -5.431146 -1.489162 -1.798276 3.319999 0.141794 -1.032688 1.897324 0.116030 -1.290437 2.371958 0.139708 -1.032688 1.897325 0.116030 -8.618392 23.827638 1.200116 -9.826544 0.480538 3.311801 -2.519720 1.200817 -5.448370 -3.296989 20.720653 85.637437 13.231181 13.018868 12.729329 -1.328299 -1.597930 -1.276064 5.684548 -0.567816 1.021176 1.867214 5.739380 -87.811128 -6.702381 8.247888 -2.250744 -1.402851 -3.360228 0.356510 -2.726538 6.510027 1.334298 -1.351466 3.719322 -0.810123 -1.133071 -4.571699 0.209348 -0.001001 -0.051523 0.000163 4.330302 10.528172 1.021704 4.179496 0.534712 0.785712 5.078351 -5.683297 -0.659332 0.009562 0.053989 -0.000591
